<svg width="101.08mm" height="117.97mm" version="1.1" viewBox="0 0 101.08 117.97" xmlns="http://www.w3.org/2000/svg">
 <g transform="translate(-54.272 -77.396)">
  <path transform="matrix(.26458 0 0 .26458 .53323 52.371)" d="m394.84 118.48c-29.569-5.4e-4 -53.54 23.97-53.539 53.539 0.0301 24.668 16.912 46.123 40.881 51.955 0 0-2.121 9.4903-5.834 11.945-4.4949 2.972-16.748 9.2227-16.748 9.2227s-59.892 42.537-91.664 59.338c-12.438 6.5774-32.056 4.3824-38.74 16.764-3.0666 5.6802-2.541 14.567 0.86523 20.496 3.3986 5.9161 10.79 10.829 17.23 11.047 13.938 0.47221 21.88-17.4 33.732-24.75 19.869-12.322 54.135-29.43 75.943-40.025l-4.8449 94.507c1.4031 7.6203 7.84 63.022 3.6828 92.639-1.0116 7.2072-34.276 16.89-32.072 31.777 1.0026 6.7747 10.88 9.6229 18.158 9.6133l45.814-0.0605s-4.1933-27.243-4.6875-40.984c-1.1402-31.703 3.2213-89.579 4.082-100.61h15.562c0.86076 11.027 5.2222 68.903 4.082 100.61-0.49421 13.742-4.6875 40.984-4.6875 40.984l45.814 0.0605c7.2778 0.01 17.156-2.8386 18.158-9.6133 2.2033-14.887-31.061-24.57-32.072-31.777-4.1572-29.617 2.2797-85.019 3.4885-94.755l-4.6818-91.681c21.865 10.646 55.09 27.293 74.475 39.314 11.852 7.3499 19.792 25.222 33.73 24.75 6.44-0.21812 13.834-5.1308 17.232-11.047 3.4062-5.9293 3.9318-14.816 0.86523-20.496-6.6845-12.381-26.302-10.186-38.74-16.764-31.327-16.565-88.929-56.186-89.873-58.594 0 0-12.081-6.7987-17.121-9.9668-4.4813-2.8171-5.0957-12.107-5.0957-12.107 23.617-6.1041 40.122-27.4 40.141-51.793 5.4e-4 -29.568-23.969-53.539-53.537-53.539z" style="fill:#fff;opacity:.99;stroke-linejoin:bevel;stroke-width:10.001;stroke:#000"/>
  <path d="m104.99 85.729c-7.2248-1.32e-4 -12.582 5.8591-12.582 13.087 0.0074 6.0298 5.333 10.896 11.19 12.322 0 0-2.2191 4.6977-3.1264 5.2978-1.0983 0.72646-4.0922 2.2543-4.0922 2.2543s-16.384 11.342-24.147 15.449c-3.0392 1.6077-7.8324 1.2602-9.4657 4.2866-0.74929 1.3884-0.62086 2.4267 0.21141 3.876 0.8304 1.4461 2.0695 1.702 3.6431 1.7553 3.4056 0.11542 4.9682-4.2532 7.8641-6.0497 4.8548-3.0118 16.422-8.7487 21.751-11.339l-1.1838 25.601c0.34283 1.8626 1.9826 19.289 0.96681 26.528-0.24718 1.7617-8.3748 3.5615-7.8364 7.2004 0.24498 1.656 2.0915 1.7852 3.8698 1.7828l9.8712-0.20379s-1.0246-6.659-1.1453-10.018c-0.27858-7.7492 0.22012-24.457 0.43043-27.152h7.7712c0.21032 2.6953 1.276 19.592 0.99739 27.341-0.12075 3.3589-1.1453 10.018-1.1453 10.018l9.1153 0.0148c1.7782 2e-3 3.8138 0.25111 4.0587-1.4049 0.53835-3.639-7.5892-6.0058-7.8364-7.7674-1.0158-7.2394 0.435-24.476 0.73035-26.856l-1.144-24.91c5.3424 2.6022 18.039 8.7934 22.776 11.732 2.8959 1.7966 3.5131 5.5982 6.9187 5.4828 1.5735-0.0533 2.6242-0.3092 3.4546-1.7553 0.83227-1.4493 0.7717-2.4876 0.0224-3.876-1.6333-3.0264-6.4265-2.1119-9.4657-3.7196-7.6542-4.0491-23.54-15.246-23.77-15.834 0 0-2.952-1.6618-4.1833-2.4362-1.0949-0.68858-2.379-5.5264-2.379-5.5264 5.7704-1.492 10.437-6.1306 10.442-12.093 1.3e-4 -7.2274-5.3565-13.087-12.581-13.087z" style="fill:none;opacity:.99;stroke-linejoin:bevel;stroke-width:1.3229;stroke:#ff0005"/>
 </g>
</svg>
