<svg width="1e2mm" height="1.2e2mm" version="1.1" viewBox="0 0 101.08146 117.96836" xmlns="http://www.w3.org/2000/svg">
<g transform="translate(-54 -77)">
<path transform="matrix(.26 0 0 .26 .53 52)" d="m3.9e2 1.2e2c-30-5.4e-4 -54 24-54 54 0.03 25 17 46 41 52 0 0-2.1 9.5-5.8 12-4.5 3-17 9.2-17 9.2s-60 43-92 59c-12 6.6-32 4.4-39 17-3.1 5.7-2.5 15 0.87 20 3.4 5.9 11 11 17 11 14 0.47 22-17 34-25 20-12 54-29 76-40l-4.8 95c1.4 7.6 7.8 63 3.7 93-1 7.2-34 17-32 32 1 6.8 11 9.6 18 9.6l46-0.06s-4.2-27-4.7-41c-1.1-32 3.2-90 4.1-1e2h16c0.86 11 5.2 69 4.1 1e2 -0.49 14-4.7 41-4.7 41l46 0.06c7.3 0.01 17-2.8 18-9.6 2.2-15-31-25-32-32-4.2-30 2.3-85 3.5-95l-4.7-92c22 11 55 27 74 39 12 7.3 20 25 34 25 6.4-0.22 14-5.1 17-11 3.4-5.9 3.9-15 0.87-20-6.7-12-26-10-39-17-31-17-89-56-90-59 0 0-12-6.8-17-10-4.5-2.8-5.1-12-5.1-12 24-6.1 40-27 40-52 5.4e-4 -30-24-54-54-54z" style="fill:#fff;opacity:.99;stroke-linejoin:bevel;stroke-width:10;stroke:#000"/>
<path d="m1e2 86c-7.2-1.3e-4 -13 5.9-13 13 0.0074 6 5.3 11 11 12 0 0-2.2 4.7-3.1 5.3-1.1 0.73-4.1 2.3-4.1 2.3s-16 11-24 15c-3 1.6-7.8 1.3-9.5 4.3-0.75 1.4-0.62 2.4 0.21 3.9 0.83 1.4 2.1 1.7 3.6 1.8 3.4 0.12 5-4.3 7.9-6 4.9-3 16-8.7 22-11l-1.2 26c0.34 1.9 2 19 0.97 27-0.25 1.8-8.4 3.6-7.8 7.2 0.24 1.7 2.1 1.8 3.9 1.8l9.9-0.2s-1-6.7-1.1-10c-0.28-7.7 0.22-24 0.43-27h7.8c0.21 2.7 1.3 20 1 27-0.12 3.4-1.1 10-1.1 10l9.1 0.015c1.8 2e-3 3.8 0.25 4.1-1.4 0.54-3.6-7.6-6-7.8-7.8-1-7.2 0.44-24 0.73-27l-1.1-25c5.3 2.6 18 8.8 23 12 2.9 1.8 3.5 5.6 6.9 5.5 1.6-0.053 2.6-0.31 3.5-1.8 0.83-1.4 0.77-2.5 0.022-3.9-1.6-3-6.4-2.1-9.5-3.7-7.7-4-24-15-24-16 0 0-3-1.7-4.2-2.4-1.1-0.69-2.4-5.5-2.4-5.5 5.8-1.5 10-6.1 10-12 1.3e-4 -7.2-5.4-13-13-13z" style="fill:none;opacity:.99;stroke-linejoin:bevel;stroke-width:1.3;stroke:#ff0005"/>
</g>
</svg>
