<svg width="1.2e2mm" height="1.2e2mm" version="1.1" viewBox="0 0 119.58788 118.05522" xmlns="http://www.w3.org/2000/svg">
<g transform="translate(-22 .087)">
<path transform="translate(-54 -77)" d="m1e2 86c-7.2-1.3e-4 -13 5.9-13 13 0.0074 6 5.3 11 11 12 0 0-2.2 4.7-3.1 5.3-1.1 0.73-4.1 2.3-4.1 2.3s-7.4 12-11 20c-1.2 3.2-3.1 9-2.8 11s0.82 3.9 2.5 4.1c2 0.24 1.8-0.64 2-2.4 0.24-2.2 1.2-5.9 2.7-10 1.8-5.1 1.6-13 6-15l-1.2 26s3.7 3.1 6 3.8c2.5 0.71 5.3 0.78 7.8 0 2.4-0.75 6.1-4.3 6.1-4.3l-0.34-19c-0.22-12 77 13 75-9-10-22-53-1.1-76-4.5 0 0-3-1.7-4.2-2.4-1.1-0.69-2.4-5.5-2.4-5.5 5.8-1.5 10-6.1 10-12 1.3e-4 -7.2-5.4-13-13-13z" style="fill:#ffe6e6"/>
</g>
<g transform="translate(-76 -77)">
<path transform="matrix(.26 0 0 .26 .53 52)" d="m3.8e2 4.8e2c1 7.2 34 17 32 32-1 6.8-11 9.6-18 9.6l-46-0.06s4.2-27 4.7-41l1-93 4.8-95c-7.2 21-11 46-19 69-3.1 9.7-4.1 13-4.4 26-0.15 6.4-6.8 8.5-14 7.1-6.7-1.2-11-17-10-23 0.62-14 0.058-18 4.4-31 9-28 46-91 46-91s12-6.3 17-9.2c3.7-2.5 5.8-12 5.8-12-24-5.8-37-27-37-52-5.4e-4 -30 24-57 54-54 29 3.5 47 24 50 54 2.1 24-17 46-40 52 0 0 0.61 9.3 5.1 12 5 3.2 17 10 17 10 0.94 2.4 57 14 88 14 14-0.27 39-15 46-2.1 3.1 5.7 2.5 15-0.87 20-3.4 5.9-11 11-17 11-14 0.47-20-5.6-34-5.9-20-0.4-53 1.1-80 5.6l4.7 92c-1.2 9.7 8.4 65 13 95 1 7.2 34 17 32 32-1 6.8-11 9.6-18 9.6l-46-0.06s1.4-27 1.9-41c1.1-32-16-90-17-1e2h-16z" style="fill:#fff;opacity:.99;stroke-linejoin:bevel;stroke-width:10;stroke:#000"/>
</g>
<g transform="translate(-22 .087)">
<path transform="translate(-54 -77)" d="m1e2 86c-7.2-1.3e-4 -13 5.9-13 13 0.0074 6 5.3 11 11 12 0 0-2.2 4.7-3.1 5.3-1.1 0.73-4.1 2.3-4.1 2.3s-7.4 12-11 20c-1.2 3.2-3.1 9-2.8 11s0.82 3.9 2.5 4.1c2 0.24 1.8-0.64 2-2.4 0.24-2.2 1.2-5.9 2.7-10 1.8-5.1 1.6-13 6-15 0 0-2 18-1.2 26 0.29 2.7 3.7 4.3 9.9 4.3 6.2-0.048 9.9-1.4 9.9-4.8 0.076-6.1-0.34-19-0.34-19-0.22-12 77 13 75-9-10-22-53-1.1-76-4.5 0 0-3-1.7-4.2-2.4-1.1-0.69-2.4-5.5-2.4-5.5 5.8-1.5 10-6.1 10-12 1.3e-4 -7.2-5.4-13-13-13z" style="fill:none;opacity:.99;stroke-linejoin:bevel;stroke-width:1.3;stroke:#ff0005"/>
</g>
</svg>
