<svg width="240.75mm" height="117.97mm" version="1.1" viewBox="0 0 240.75 117.97" xmlns="http://www.w3.org/2000/svg">
 <g transform="translate(-71.544 -77.396)">
  <path d="m205.57 122.89c30.746 3.5088 63.996-7.3723 75.272 6.4758s1.2296 22.208 1.566 31.381c0.16147 4.4024 6.2175 13.32 6.2818 8.0102 0.0625-5.1585-0.18648-16.542 5.6503-16.574 5.9142-0.032 6.4621 11.63 5.9067 16.731-0.59401 5.455 6.8149-3.802 6.4034-8.3277-0.82304-9.0514-11.989-28.571-20.994-34.623-18.01-12.105-49.3-8.1767-78.356-14.49s-80.007-11.048-95.774-23.95c-5.5355-4.53-13.432-1.4875-16.61 3.2537-3.1787 4.7412-3.7047 10.614 1.6324 16.59 11.977 13.411 78.276 12.015 109.02 15.524z" style="fill:#ffe6e6;opacity:.99;stroke-linejoin:bevel;stroke-width:1.2586;stroke:#ff0005"/>
  <path transform="matrix(.26458 0 0 .26458 .53323 52.371)" d="m394.84 118.48c-29.569-5.4e-4 -53.54 23.97-53.539 53.539 0.0301 24.668 16.912 46.123 40.881 51.955 0 0-2.121 9.4903-5.834 11.945-4.4949 2.972-25.735 13.634-25.735 13.634s-29.192 61.127-44.46 93.663c-5.9777 12.738-17.231 36.13-12.653 47.113 2.1 5.0383 8.4285 9.5056 14.398 10.526 5.9558 1.0181 13.514-1.068 17.343-5.0817 8.2879-8.6866 0.49543-28.614 5.5399-41.616 8.4568-21.797 17.511-41.409 26.187-66.146l-4.8449 94.507c1.4031 7.6203 7.84 63.022 3.6828 92.639-1.0116 7.2072-34.276 16.89-32.072 31.777 1.0026 6.7747 10.88 9.6229 18.158 9.6133l45.814-0.0605s-4.1933-27.243-4.6875-40.984c-1.1402-31.703 3.2213-89.579 4.082-100.61h15.562c0.86076 11.027 5.2222 68.903 4.082 100.61-0.49421 13.742-4.6875 40.984-4.6875 40.984l45.814 0.0605c7.2778 0.01 17.156-2.8386 18.158-9.6133 2.2033-14.887-31.061-24.57-32.072-31.777-4.1572-29.617 2.2797-85.019 3.4885-94.755l-4.6818-91.681c10.753 27.818 15.111 42.99 23.644 64.143 5.2174 12.933-4.6638 32.275 3.5601 41.331 3.7998 4.184 11.291 6.3513 17.189 5.2792 5.911-1.0744 12.172-5.7477 14.244-11.011 4.5161-11.472-6.2328-33.465-10.514-46.868-9.1353-28.6-41.66-91.921-41.52-94.503 0 0-20.996-8.0062-26.035-11.174-4.4813-2.8171-5.0957-12.107-5.0957-12.107 23.617-6.1041 40.122-27.4 40.141-51.793 5.4e-4 -29.568-23.969-53.539-53.537-53.539z" style="fill:#fff;opacity:.99;stroke-linejoin:bevel;stroke-width:10.001;stroke:#000"/>
  <path d="m205.57 122.89c30.746 3.5088 63.996-7.3723 75.272 6.4758s1.2296 22.208 1.566 31.381c0.16147 4.4024 6.2175 13.32 6.2818 8.0102 0.0625-5.1585-0.18648-16.542 5.6503-16.574 5.9142-0.032 6.4621 11.63 5.9067 16.731-0.59401 5.455 6.8149-3.802 6.4034-8.3277-0.82304-9.0514-11.989-28.571-20.994-34.623-18.01-12.105-49.3-8.1767-78.356-14.49s-80.007-11.048-95.774-23.95c-5.5355-4.53-13.432-1.4875-16.61 3.2537-3.1787 4.7412-3.7047 10.614 1.6324 16.59 11.977 13.411 78.276 12.015 109.02 15.524z" style="fill:none;opacity:.99;stroke-linejoin:bevel;stroke-width:1.2586;stroke:#ff0005"/>
  <g transform="matrix(.98556 0 0 .98556 -1.1949 -4.4273)">
   <path d="m212.08 145.28h38.554v38.554h-38.554z" style="fill:#fff;stroke-width:1.3229;stroke:#000"/>
   <rect transform="rotate(45)" x="254.17" y="-52.223" width="51.027" height="9.4494" style="fill:#fff;stroke-width:1.3229;stroke:#000"/>
   <rect x="205.84" y="139.05" width="51.027" height="9.4494" style="fill:#fff;stroke-width:1.3229;stroke:#000"/>
   <rect x="205.84" y="180.62" width="51.027" height="9.4494" style="fill:#fff;stroke-width:1.3229;stroke:#000"/>
   <rect transform="rotate(90)" x="139.05" y="-256.87" width="51.027" height="9.4494" style="fill:#fff;stroke-width:1.3229;stroke:#000"/>
   <rect transform="rotate(90)" x="139.05" y="-215.29" width="51.027" height="9.4494" style="fill:#fff;stroke-width:1.3229;stroke:#000"/>
  </g>
  <circle cx="294.48" cy="170.42" r="4.5357" style="fill:#fff;stroke-width:1.3229;stroke:#000"/>
 </g>
</svg>
