<svg width="2.3e2mm" height="1.1e2mm" version="1.1" viewBox="0 0 231.55203 114.51555" xmlns="http://www.w3.org/2000/svg">
<g transform="translate(-32 -3.5)">
<path transform="translate(-54 -77)" d="m2.1e2 1.5e2c25-26 1.1e2 14 1e2 -21-1.5-36-77 8.2-1.1e2 -12z" style="fill:#ffe6e6;opacity:.99;stroke-linejoin:bevel;stroke-width:1.3;stroke:#ff0005"/>
<g transform="matrix(.6 0 0 .75 27 83)" style="stroke-width:1.5">
<path d="m1.6e2 -90v17l30 5v-17zm31 5v17l30 5v-17zm31 5v17l30 5v-17zm31 5v17l30 5v-17zm-94 2.9v17l16 2.8v-17zm17 2.5v17l30 5v-17zm31 5v17l30 5v-17zm31 5v17l30 5v-17zm31 5v17l13 2.2v-17zm-1.1e2 0.39v17l30 5v-17zm31 4.8v17l30 5v-17zm31 5v17l30 5v-17zm31 5v17l30 5v-17zm-94 3.1v17l16 2.8v-17zm17 2.5v17l30 5v-17zm31 5v17l30 5v-17zm31 5v17l30 5v-17zm31 5v17l13 2.2v-17zm-1.1e2 0.39v17l30 5v-17zm31 4.8v17l30 5v-17zm31 5v17l30 5v-17zm31 5v17l30 5v-17z" style="fill:#fff;stroke-width:2;stroke:#000005"/>
<g style="stroke-width:1.5">
<path d="m1.6e2 -90 12-4.3 31 4.9-12 4.6z" style="fill:#fff;stroke-linejoin:bevel;stroke-width:2;stroke:#000"/>
<path d="m1.9e2 -85 12-4.3 31 4.9-12 4.6z" style="fill:#fff;stroke-linejoin:bevel;stroke-width:2;stroke:#000"/>
<path d="m2.2e2 -80 12-4.3 31 4.9-12 4.6z" style="fill:#fff;stroke-linejoin:bevel;stroke-width:2;stroke:#000"/>
<path d="m2.5e2 -75 12-4.3 31 4.9-12 4.6z" style="fill:#fff;stroke-linejoin:bevel;stroke-width:2;stroke:#000"/>
<path d="m2.8e2 -70 12-4.7v16l-12 4.8z" style="fill:#fff;stroke-width:2;stroke:#000"/>
<path d="m2.8e2 -52 12-5.2v17l-12 4.3z" style="fill:#fff;stroke-width:2;stroke:#000"/>
<path d="m2.8e2 -34 12-4.8v17l-12 4.6z" style="fill:#fff;stroke-width:2;stroke:#000"/>
<path d="m2.8e2 -16 12-4.6v17l-12 4.3z" style="fill:#fff;stroke-width:2;stroke:#000"/>
<path d="m2.8e2 1.9 12-4.8v17l-12 4.3z" style="fill:#fff;stroke-width:2;stroke:#000"/>
</g>
</g>
<path transform="translate(-54 -77)" d="m1.2e2 1.1e2s-4.5 2.5-5.6 2.6c-5.9 0.27-7.7 5.6-11 10 0 0-7.6 21-6.8 29 0.29 2.7 3.7 4.3 9.9 4.3 6.2-0.048 12-8.5 13-12 11-22 69-10 92-6.2v-16c-23 5.1-70 3.3-88-4.3-1.2-0.51-1.3-5.9-1.3-5.9 5.6 2.1 12 0.94 15-4 4.1-5.9 3.1-14-2.8-18-5.9-4.1-14-2.4-17 3.1s-2.2 12 1.8 17z" style="fill:#ffe6e6"/>
<path transform="matrix(.26 0 0 .26 -54 -25)" d="m3.8e2 4.8e2c1 7.2 34 17 32 32-1 6.8-11 9.6-18 9.6l-46-0.06s4.2-27 4.7-41l-1.8-1.1e2 29-1.1e2 28-33s14 2.2 19 2.5c4.4 0.23 12-6.2 12-6.2-16-19-14-44 0.97-64 18-24 53-32 75-11 21 20 24 47 8.3 73-13 21-40 27-63 18 0 0-5 7.8-3.1 13 2.2 5.5 6.5 7.5 6.5 7.5 0.81 2.5 56 17 87 19 14 0.52 40-12 46 0.46 2.7 5.8 1.7 15-2 20-3.7 5.7-11 10-18 10-14-0.32-19-6.7-33-7.8-20-1.6-53-1.9-80 1.1l-28 84c-3.3 9.2 13 64 17 94 1 7.2 34 17 32 32-1 6.8-11 9.6-18 9.6l-46-0.06s1.4-27 1.9-41c1.1-32-21-96-20-1.1e2l-15-3.4z" style="fill:#fff;opacity:.99;stroke-linejoin:bevel;stroke-width:10;stroke:#000"/>
<path transform="translate(-54 -77)" d="m99 1.3e2c4.4 4.5 18 3.2 24 5.8 2.7 1.1 9.7-0.41 13-1.1 1.7-0.34 2.2-2.5 1.7-4.7-0.45-2-4.6-2.6-6.3-2.2-3.8 0.84-3.4 0.55-7.1-0.95-7.7-3.1-22-10-22-10" style="fill:#fff;opacity:.99;stroke-linejoin:bevel;stroke-width:2.6;stroke:#000"/>
<path d="m64 34s-4.5 2.5-5.6 2.6c-5.9 0.27-7.7 5.6-11 10 0 0-7.6 21-6.8 29 0.29 2.7 3.7 4.3 9.9 4.3 6.2-0.048 12-8.5 13-12 11-22 69-10 92-6.2v-16c-23 5.1-70 3.3-88-4.3-1.2-0.51-1.3-5.9-1.3-5.9 5.6 2.1 12 0.94 15-4 4.1-5.9 3.1-14-2.8-18-5.9-4.1-14-2.4-17 3.1s-2.2 12 1.8 17z" style="fill:none;opacity:.99;stroke-linejoin:bevel;stroke-width:1.3;stroke:#ff0005"/>
<path d="m1.5e2 13c-21 0-39 17-39 39 0 21 17 39 39 39 21 0 39-17 39-39 0-21-17-39-39-39zm0 9.1c16 0 29 13 29 29 0 6.5-2.1 13-5.6 17l-41-41c4.9-3.5 11-5.6 17-5.6zm-24 12 41 41c-4.9 3.6-11 5.6-17 5.6-16 0-29-13-29-29 0-6.5 2.1-13 5.6-17z" style="color-rendering:auto;color:#000000;dominant-baseline:auto;fill:#f00;font-feature-settings:normal;font-variant-alternates:normal;font-variant-caps:normal;font-variant-ligatures:normal;font-variant-numeric:normal;font-variant-position:normal;image-rendering:auto;isolation:auto;mix-blend-mode:normal;shape-padding:0;shape-rendering:auto;solid-color:#000000;stroke-linejoin:bevel;stroke-width:1.3;stroke:#000;text-decoration-color:#000000;text-decoration-line:none;text-decoration-style:solid;text-indent:0;text-orientation:mixed;text-transform:none;white-space:normal"/>
</g>
</svg>
