<svg width="2.3e2mm" height="1.1e2mm" version="1.1" viewBox="0 0 231.55203 114.51555" xmlns="http://www.w3.org/2000/svg">
<g transform="translate(-32 -3.5)">
<path d="m1.5e2 58c24 1.1 79-3.2 95-4.7-15-1.6-71-0.29-93-4.2s-70-8.5-84-19c-4.9-3.4-12-1.2-14 2.5-2.8 3.7-3.2 8.3 1.4 13 10 10 71 11 95 12z" style="fill:#ffe6e6;opacity:.99;stroke-linejoin:bevel;stroke-width:1.1;stroke:#ff0005"/>
<path d="m45 1e2c0.22 1.6 7.5 3.7 7 7-0.22 1.5-2.4 2.1-4 2.1l-10-0.013s0.92-6 1-9l-0.4-24 6.4-24 6.1-7.2s3 0.49 4.2 0.55c0.98 0.05 2.6-1.4 2.6-1.4-3.5-4.2-3-9.7 0.21-14 3.9-5.2 12-7 16-2.5 4.6 4.3 5.2 10 1.8 16-2.8 4.6-8.9 5.9-14 3.9 0 0-1.1 1.7-0.68 2.8 0.48 1.2 1.4 1.6 1.4 1.6 0.18 0.54 5.5 2 12-0.8 2.8-1.3 2.4-12 5.5-12 1.4 0.083 3 1.2 3.7 2.5 0.71 1.3 0.78 3.3 0.075 4.5-1.5 2.7-4.1 10-7 11-4.2 1.7-8.2 3.3-14 4l-6.1 19c-0.72 2 2.8 14 3.7 21 0.22 1.6 7.5 3.7 7 7-0.22 1.5-2.4 2.1-4 2.1l-10-0.013s0.3-6 0.41-9c0.25-7-4.7-21-4.3-24l-3.3-0.74z" style="fill:#fff;opacity:.99;stroke-linejoin:bevel;stroke-width:2.2;stroke:#000"/>
<path d="m47 60c-5.2-0.11-5.6-11-6.9-16 0-7.7 11-10 12-13 0.52-1.4 2.3-1.4 4.1-0.7 1.6 0.65 1.4 4.1 0.9 5.5-1.2 3-8.8 3-8.1 6.3 1.5 6.8 4 8.2 4 8.2" style="fill:#fff;opacity:.99;stroke-linejoin:bevel;stroke-width:2.2;stroke:#000"/>
<path d="m1.5e2 58c24 1.1 79-3.2 95-4.7-15-1.6-71-0.29-93-4.2s-70-8.5-84-19c-4.9-3.4-12-1.2-14 2.5-2.8 3.7-3.2 8.3 1.4 13 10 10 71 11 95 12z" style="fill:none;opacity:.99;stroke-linejoin:bevel;stroke-width:1.1;stroke:#ff0005"/>
<path d="m2.5e2 50-7-7" style="fill:none;stroke-width:.26px;stroke:#000"/>
<path d="m2.5e2 50 2.1-7.9" style="fill:none;stroke-width:.26px;stroke:#000"/>
<path d="m2.5e2 53 8-2.1" style="fill:none;stroke-width:.26px;stroke:#000"/>
<path d="m2.5e2 56 6 6" style="fill:none;stroke-width:.26px;stroke:#000"/>
<path d="m2.5e2 56-4.4 7.6" style="fill:none;stroke-width:.26px;stroke:#000"/>
</g>
</svg>
