<svg width="231.55mm" height="114.52mm" version="1.1" viewBox="0 0 231.55 114.52" xmlns="http://www.w3.org/2000/svg">
 <g transform="translate(-31.607 -3.4528)">
  <path d="m248.5 41.847c-3.799-3.9454-10.077-4.064-14.022-0.26495-3.2876 3.1734-3.9813 8.1824-1.6799 12.13 0 0-1.7014 1.941-2.5202 2.0383-0.99116 0.11781-4.3316-0.55431-4.3316-0.55431s-3.4707-6.0602-3.269-12.714c0.079-2.6051 5.6298-6.0892 5.4536-8.286-0.0808-1.0078-0.9391-2.1577-1.9319-2.6799-0.99052-0.52099-2.4413-0.58717-3.346-0.09997-1.958 1.0544-5.2663 8.4366-5.1672 11.018 0.16613 4.3275 4.2296 15.629 5.0501 20.324l-7.3614 14.031c-1.0583 0.9695-9.1225 7.4271-14.181 9.6864-1.2309 0.5498-6.0214-3.72-8.1418-1.9105-0.96494 0.82348-0.44086 2.6542 0.27619 3.7957l4.5139 7.1861s3.8644-3.3368 5.973-4.7654c4.8647-3.296 15.96-9.3027 17.02-11.056l2.2327 1.214c-0.77508 1.8964-4.8692 11.837-7.6958 16.989-1.2253 2.233-3.0632 7.6815-3.0632 7.6815l8.3192 1.6756c1.3215 0.26632 3.2191 0.10777 3.6474-1.0863 0.94113-2.624-4.8035-4.7869-4.3712-6.0638 1.7765-5.2472 7.4517-13.88 8.4618-15.391l6.8539-15.562c6.6486-0.40275 13.582-0.97477 17.803-1.1659 2.5806-0.11682 7.3361-1.3105 8.5416-3.229 0.55702-0.88641 0.57028-2.3308 0.085-3.3296-0.4863-1.001-1.6321-1.885-2.6742-1.9923-2.2716-0.23386-3.8118 3.6566-6.417 3.5809-5.559-0.16145-13.019 0.21197-12.781-0.20373 0 0-2.8083-3.072-3.3787-4.0156-0.50719-0.83908-0.23123-1.6602-0.23123-1.6602 3.8487 2.3669 8.8108 1.833 12.068-1.2984 3.9453-3.7989 4.064-10.077 0.2652-14.022z" style="fill:#fff;opacity:.99;stroke-linejoin:bevel;stroke-width:1.8525;stroke:#000"/>
  <path d="m151.35 51.123c29.783 0.04087 70.956-3.155 86.329-4.7237-15.373-1.5687-57.231-1.4691-84.819-4.1723s-66.869-1.7048-80.532-11.858c-4.9199-3.4286-11.718-1.159-14.491 2.5353-2.7732 3.6943-3.2321 8.2703 1.4241 12.927 10.449 10.449 62.307 5.2516 92.09 5.2924z" style="fill:#ffe6e6;opacity:.99;stroke-linejoin:bevel;stroke-width:1.0981;stroke:#ff0005"/>
  <path d="m44.698 102.78c0.22216 1.5828 7.5273 3.7092 7.0434 6.9787-0.22019 1.4878-2.3895 2.1133-3.9877 2.1112l-10.061-0.0133s0.92089-5.9828 1.0294-9.0006l-0.4006-24.313 6.3599-24.12 6.0524-7.2344s2.9805 0.49206 4.1623 0.55256c0.97626 0.04996 2.588-1.3511 2.588-1.3511-3.4767-4.1547-2.9964-9.6546 0.21322-14.019 3.8536-5.2267 11.728-6.9526 16.441-2.4859 4.587 4.347 5.2247 10.393 1.8174 15.948-2.8042 4.5643-8.8753 5.9224-13.845 3.9234 0 0-1.1022 1.7222-0.67723 2.8042 0.47791 1.2168 1.4337 1.6451 1.4337 1.6451 0.17702 0.53966 5.4665 2.0086 11.749-0.79785 2.8214-1.2603 2.3842-12.119 5.469-11.94 1.4152 0.08256 3.015 1.2063 3.7297 2.5271 0.71315 1.3178 0.77777 3.2662 0.0753 4.4946-1.5203 2.6587-4.1401 9.9892-6.9833 11.128-4.1587 1.6654-8.2184 3.3487-14.065 4.0088l-6.1254 18.515c-0.72163 2.03 2.8173 14.133 3.7302 20.638 0.22217 1.5828 7.5273 3.7092 7.0434 6.9787-0.22019 1.4878-2.3895 2.1134-3.9877 2.1112l-10.061-0.0133s0.29837-5.9828 0.40691-9.0006c0.25039-6.9622-4.6672-21.141-4.328-23.546l-3.3368-0.73924z" style="fill:#fff;opacity:.99;stroke-linejoin:bevel;stroke-width:2.1963;stroke:#000"/>
  <path d="m46.927 60.227c-5.1839-0.10632-5.6304-10.599-6.8531-16.181 0-7.7369 10.799-10.429 11.814-13.098 0.51633-1.3586 2.3155-1.4178 4.0668-0.70038 1.5832 0.64854 1.4453 4.1335 0.89697 5.4864-1.2244 3.0211-8.7695 3.0109-8.0627 6.2548 1.4736 6.7643 4.0099 8.2004 4.0099 8.2004" style="fill:#fff;opacity:.99;stroke-linejoin:bevel;stroke-width:2.1963;stroke:#000"/>
  <path d="m151.35 51.123c29.783 0.04087 70.956-3.155 86.329-4.7237-15.373-1.5687-57.231-1.4691-84.819-4.1723s-66.869-1.7048-80.532-11.858c-4.9199-3.4286-11.718-1.159-14.491 2.5353-2.7732 3.6943-3.2321 8.2703 1.4241 12.927 10.449 10.449 62.307 5.2516 92.09 5.2924z" style="fill:none;opacity:.99;stroke-linejoin:bevel;stroke-width:1.0981;stroke:#ff0005"/>
  <path d="m240.87 35.331-2.0535-7.944" style="fill:none;stroke-width:.26458px;stroke:#000"/>
  <path d="m245.74 35.886 4.3382-7.0794" style="fill:none;stroke-width:.26458px;stroke:#000"/>
  <path d="m236.42 37.32-6.4891-5.0215" style="fill:none;stroke-width:.26458px;stroke:#000"/>
 </g>
</svg>
