<svg width="119.59mm" height="118.06mm" version="1.1" viewBox="0 0 119.59 118.06" xmlns="http://www.w3.org/2000/svg">
 <g transform="translate(-21.688 .086865)">
  <path transform="translate(-54.272 -77.396)" d="m104.99 85.729c-7.2248-1.32e-4 -12.582 5.8591-12.582 13.087 0.0074 6.0298 5.333 10.896 11.19 12.322 0 0-2.2191 4.6977-3.1264 5.2978-1.0983 0.72646-4.0922 2.2543-4.0922 2.2543s-7.4304 11.877-10.516 20.26c-1.1877 3.2266-3.1441 8.9788-2.7839 10.968s0.82376 3.9446 2.4832 4.1432c2.0331 0.24337 1.8493-0.64307 2.0395-2.3874 0.24129-2.2128 1.1858-5.9299 2.6523-10.059 1.8185-5.1197 1.5885-12.758 5.9818-14.947l-1.1838 25.601s3.749 3.1 6.0228 3.75c2.4906 0.71201 5.3019 0.78281 7.7712 0 2.3534-0.74605 6.0536-4.267 6.0536-4.267l-0.34214-19.297c-0.21676-12.225 76.526 13.347 75.319-9.0448-10.082-21.978-53.055-1.0728-76.186-4.5383 0 0-2.952-1.6618-4.1833-2.4362-1.0949-0.68858-2.379-5.5264-2.379-5.5264 5.7704-1.492 10.437-6.1306 10.442-12.093 1.3e-4 -7.2274-5.3565-13.087-12.581-13.087z" style="fill:#ffe6e6"/>
 </g>
 <g transform="translate(-75.96 -77.309)">
  <path transform="matrix(.26458 0 0 .26458 .53323 52.371)" d="m378.31 475.16c1.0116 7.2072 34.276 16.89 32.072 31.777-1.0026 6.7747-10.88 9.6229-18.158 9.6133l-45.814-0.0605s4.1933-27.243 4.6875-40.984l1.0248-92.985 4.8449-94.507c-7.1616 20.697-11.429 45.762-18.87 68.815-3.1442 9.7412-4.137 13.1-4.438 25.76-0.15308 6.4419-6.7608 8.5062-14.2 7.1359-6.7249-1.2388-10.741-16.572-10.462-23.021 0.62354-14.402 0.0584-17.52 4.395-30.906 9.0431-27.912 46.207-90.653 46.207-90.653s12.253-6.2507 16.748-9.2227c3.713-2.455 5.834-11.945 5.834-11.945-23.969-5.832-37.071-27.287-37.101-51.955-5.4e-4 -29.569 24.194-57.173 53.539-53.539 28.558 3.5361 47.233 23.971 49.758 53.539 2.0569 24.306-16.524 45.689-40.141 51.793 0 0 0.61444 9.2904 5.0957 12.107 5.0396 3.1681 17.121 9.9668 17.121 9.9668 0.94373 2.4078 56.526 14.249 87.853 13.642 14.068-0.27274 39.127-14.515 45.811-2.134 3.0666 5.6802 2.541 14.567-0.86523 20.496-3.3986 5.9161-10.792 10.829-17.232 11.047-13.938 0.47221-19.787-5.5758-33.73-5.8524-20.395-0.40441-53.115 1.1309-79.525 5.6373l4.6818 91.681c-1.2088 9.7355 8.4173 65.137 12.574 94.755 1.0116 7.2072 34.276 16.89 32.072 31.777-1.0026 6.7747-10.88 9.6233-18.158 9.6133l-45.814-0.0605s1.3586-27.243 1.8529-40.984c1.1402-31.703-16.45-89.579-17.31-100.61h-15.562z" style="fill:#fff;opacity:.99;stroke-linejoin:bevel;stroke-width:10.001;stroke:#000"/>
 </g>
 <g transform="translate(-21.688 .086865)">
  <path transform="translate(-54.272 -77.396)" d="m104.99 85.729c-7.2248-1.32e-4 -12.582 5.8591-12.582 13.087 0.0074 6.0298 5.333 10.896 11.19 12.322 0 0-2.2191 4.6977-3.1264 5.2978-1.0983 0.72646-4.0922 2.2543-4.0922 2.2543s-7.4304 11.877-10.516 20.26c-1.1877 3.2266-3.1441 8.9788-2.7839 10.968s0.82376 3.9446 2.4832 4.1432c2.0331 0.24337 1.8493-0.64307 2.0395-2.3874 0.24129-2.2128 1.1858-5.9299 2.6523-10.059 1.8185-5.1197 1.5885-12.758 5.9818-14.947 0 0-2.0332 17.686-1.1838 25.601 0.29269 2.7271 3.749 4.3027 9.9482 4.2547 6.1992-0.048 9.8574-1.3678 9.8995-4.7717 0.0759-6.1385-0.34214-19.297-0.34214-19.297-0.21676-12.225 76.526 13.347 75.319-9.0448-10.082-21.978-53.055-1.0728-76.186-4.5383 0 0-2.952-1.6618-4.1833-2.4362-1.0949-0.68858-2.379-5.5264-2.379-5.5264 5.7704-1.492 10.437-6.1306 10.442-12.093 1.3e-4 -7.2274-5.3565-13.087-12.581-13.087z" style="fill:none;opacity:.99;stroke-linejoin:bevel;stroke-width:1.3229;stroke:#ff0005"/>
 </g>
</svg>
