<svg width="221.51mm" height="123.33mm" version="1.1" viewBox="0 0 221.51 123.33" xmlns="http://www.w3.org/2000/svg">
 <g transform="translate(-72.325 -72.031)">
  <path d="m162.1 129.69c35.524 3.8453 42.943 17.843 52.064 30.879 9.1215 13.036 10.897 23.365 20.323 20.954 7.3538-1.8815 6.1718-14.362 6.0557-21.952-0.12783-8.3563-7.5841-15.599-7.4034-23.954 0.15776-7.2961 10.051-13.896 7.3629-20.618-2.9489-7.3731-2.2783-17.592 3.2128-24.947s-18.989-2.8089-28.071 5.8817c-9.0824 8.6906-15.974 15.651-49.547 8.7324-67.145-13.838-38.808-4.2441-54.574-17.147-5.5355-4.53-13.432-1.4875-16.61 3.2537-3.1787 4.7412-3.7047 10.614 1.6324 16.59 11.977 13.411-5.4934 14.637 65.554 22.327z" style="fill:#ffe6e6;stroke-linejoin:bevel;stroke-width:1.2586;stroke:#ff0005"/>
  <path d="m251.82 92.569c-6.8138-1.24e-4 -12.337 5.5235-12.337 12.337 7e-3 5.6845 3.8971 10.628 9.4204 11.972 0 0-0.48875 2.1869-1.3444 2.7526-1.0358 0.68485-5.9303 3.1418-5.9303 3.1418s-6.7268 14.086-10.245 21.583c-1.3775 2.9352-3.9706 8.3258-2.9158 10.856 0.48392 1.161 1.9422 2.1904 3.3177 2.4256 1.3724 0.23461 3.114-0.24611 3.9965-1.171 1.9098-2.0017 0.11416-6.5937 1.2766-9.5898 1.9488-5.0228 4.0351-9.542 6.0345-15.242l-1.1164 21.778c0.32332 1.756 1.8066 14.523 0.84865 21.347-0.23312 1.6608-7.8983 3.8921-7.3906 7.3226 0.23104 1.5611 2.5072 2.2175 4.1843 2.2152l10.557-0.0139s-0.96629-6.2777-1.0802-9.4442c-0.26273-7.3054 0.7423-20.642 0.94065-23.183h3.5862c0.19835 2.541 1.2034 15.878 0.94064 23.183-0.11388 3.1666-1.0802 9.4442-1.0802 9.4442l10.557 0.0139c1.6771 3e-3 3.9532-0.65411 4.1843-2.2152 0.50772-3.4306-7.1575-5.6618-7.3906-7.3226-0.95797-6.8249 0.52532-19.591 0.80386-21.835l-1.0788-21.127c2.4779 6.4104 3.4821 9.9065 5.4485 14.781 1.2023 2.9803-1.0747 7.4374 0.82037 9.524 0.8756 0.96413 2.6018 1.4636 3.9609 1.2165 1.3621-0.24759 2.8049-1.3245 3.2824-2.5372 1.0407-2.6435-1.4362-7.7114-2.4228-10.8-2.1051-6.5906-9.5999-21.182-9.5676-21.777 0 0-4.8381-1.8449-5.9994-2.575-1.0326-0.64915-1.1742-2.79-1.1742-2.79 5.4421-1.4066 9.2454-6.314 9.2498-11.935 1.2e-4 -6.8136-5.5233-12.337-12.337-12.337z" style="fill:#fff;opacity:.99;stroke-linejoin:bevel;stroke-width:2.3046;stroke:#000"/>
  <g transform="translate(1.0691 -2.1382)" aria-label="♪">
   <path d="m280.72 82.258h0.53493c1.6142 0 2.6793 0.05055 3.1955 0.15164 0.74139 0.14442 1.3936 0.42244 1.9567 0.83404 0.42231 0.30329 0.75547 0.73294 0.99947 1.289 0.24401 0.5488 0.36601 1.1915 0.36601 1.928v1.1157h-1.3936v-0.46576c0-0.49104-0.13608-0.90625-0.40824-1.2456-0.26277-0.34661-0.65693-0.61018-1.1825-0.79071-0.68509-0.23108-1.4452-0.34661-2.2805-0.34661h-0.39416v9.0444c0 0.87375-0.15016 1.5562-0.45047 2.0472-0.30031 0.48381-0.81647 0.87375-1.5485 1.1698-0.73201 0.28885-1.5297 0.43327-2.3931 0.43327-1.0229 0-2.4478-0.0479-3.1246-0.66073-0.66625-0.62285-0.99937-1.3468-0.99937-2.4412 0-1.1491 0.40186-2.1122 1.2056-2.8892 0.80372-0.78797 1.856-1.182 3.1567-1.182 0.82486 0 1.7449 0.25171 2.7601 0.75513z" style="stroke-width:.63223"/>
  </g>
  <path d="m265.31 98.88 6.949-4.8109" style="fill:none;stroke-width:1.3229;stroke:#000"/>
  <path d="m85.042 92.063a1.5731 1.5731 0 0 1-1.5731 1.5731 1.5731 1.5731 0 0 1-1.5731-1.5731 1.5731 1.5731 0 0 1 1.5731-1.5731 1.5731 1.5731 0 0 1 1.5731 1.5731zm-1.5696-2.1592c-0.18547-0.74206-0.66549-1.6247-1.0572-2.4095-0.33326-0.66769-0.80883-1.2631-1.0976-1.9512-0.44501-1.0603-0.91564-2.1641-0.96109-3.3131-0.04721-1.1935 0.12155-2.5361 0.72334-3.5095 0.53782-0.86994 1.0276-1.6705 2.3369-1.6893 1.3093-0.0188 1.7884 0.72558 2.3369 1.5583 0.65434 0.99339 0.84457 2.3955 0.83462 3.6404-0.0092 1.1373-0.36811 2.2674-0.81552 3.3131-0.30338 0.70901-0.88 1.2709-1.2432 1.9512-0.41307 0.77371-0.87171 1.6674-1.0572 2.4095z"/>
  <path transform="matrix(.26458 0 0 .26458 .53323 52.371)" d="m394.84 118.48c-29.569-5.4e-4 -53.54 23.97-53.539 53.539 0.0301 24.668 16.912 46.123 40.881 51.955 0 0-2.121 9.4903-5.834 11.945-4.4949 2.972-25.575 13.523-25.575 13.523s-35.515 23.629-54.54 54.829c-5.4741 13.038 16.601 63.34 24.415 69.236 3.5847 2.7048 10.008 3.3404 14.761 1.7004 4.7423-1.6363 9.3796-6.082 10.521-10.408 2.4697-9.3629-19.191-39.192-17.186-52.993 12.291-15.28 19.175-15.18 28.224-23.796l-4.8449 94.507c1.4031 7.6203 7.84 63.022 3.6828 92.639-1.0116 7.2072-34.276 16.89-32.072 31.777 1.0026 6.7747 10.88 9.6229 18.158 9.6133l45.814-0.0605s-4.1933-27.243-4.6875-40.984c-1.1402-31.703 3.2213-89.579 4.082-100.61h15.562c0.86076 11.027 5.2222 68.903 4.082 100.61-0.49421 13.742-4.6875 40.984-4.6875 40.984l45.814 0.0605c7.2778 0.01 17.156-2.8386 18.158-9.6133 2.2033-14.887-31.061-24.57-32.072-31.777-4.1572-29.617 2.2797-85.019 3.4885-94.755l-4.6818-91.681c18.329 12.161 18.586 11.957 26.172 22.013 8.0353 11.398-25.098 30.848-23.014 42.901 0.96295 5.5692 6.1229 11.416 11.676 13.675 5.5652 2.2635 13.356 1.6776 17.928-1.653 9.9644-7.2598 31.494-49.317 24.262-61.387-15.43-25.755-49.818-54.886-50.431-57.399 0 0-20.985-7.7856-26.025-10.954-4.4813-2.8171-5.0957-12.107-5.0957-12.107 23.617-6.1041 40.122-27.4 40.141-51.793 5.4e-4 -29.568-23.969-53.539-53.537-53.539z" style="fill:#fff;stroke-linejoin:bevel;stroke-width:10.001;stroke:#000"/>
  <path d="m162.1 129.69c35.524 3.8453 42.943 17.843 52.064 30.879 9.1215 13.036 10.897 23.365 20.323 20.954 7.3538-1.8815 6.1718-14.362 6.0557-21.952-0.12783-8.3563-7.5841-15.599-7.4034-23.954 0.15776-7.2961 10.051-13.896 7.3629-20.618-2.9489-7.3731-2.2783-17.592 3.2128-24.947s-18.989-2.8089-28.071 5.8817c-9.0824 8.6906-15.974 15.651-49.547 8.7324-67.145-13.838-38.808-4.2441-54.574-17.147-5.5355-4.53-13.432-1.4875-16.61 3.2537-3.1787 4.7412-3.7047 10.614 1.6324 16.59 11.977 13.411-5.4934 14.637 65.554 22.327z" style="fill:none;opacity:.99;stroke-linejoin:bevel;stroke-width:1.2586;stroke:#ff0005"/>
 </g>
</svg>
