<svg width="231.55mm" height="114.52mm" version="1.1" viewBox="0 0 231.55 114.52" xmlns="http://www.w3.org/2000/svg">
 <g transform="translate(-31.607 -3.4528)">
  <path d="m154.37 57.926c24.297 1.1342 79.271-3.155 94.644-4.7237-15.373-1.5687-71.046-0.2878-93.135-4.1723s-69.893-8.5083-83.556-18.662c-4.9199-3.4286-11.718-1.159-14.491 2.5353-2.7732 3.6943-3.2321 8.2703 1.4241 12.927 10.449 10.449 70.817 10.962 95.114 12.096z" style="fill:#ffe6e6;opacity:.99;stroke-linejoin:bevel;stroke-width:1.0981;stroke:#ff0005"/>
  <path d="m44.698 102.78c0.22216 1.5828 7.5273 3.7092 7.0434 6.9787-0.22019 1.4878-2.3895 2.1133-3.9877 2.1112l-10.061-0.0133s0.92089-5.9828 1.0294-9.0006l-0.4006-24.313 6.3599-24.12 6.0524-7.2344s2.9805 0.49206 4.1623 0.55256c0.97626 0.04996 2.588-1.3511 2.588-1.3511-3.4767-4.1547-2.9964-9.6546 0.21322-14.019 3.8536-5.2267 11.728-6.9526 16.441-2.4859 4.587 4.347 5.2247 10.393 1.8174 15.948-2.8042 4.5643-8.8753 5.9224-13.845 3.9234 0 0-1.1022 1.7222-0.67723 2.8042 0.47791 1.2168 1.4337 1.6451 1.4337 1.6451 0.17702 0.53966 5.4665 2.0086 11.749-0.79785 2.8214-1.2603 2.3842-12.119 5.469-11.94 1.4152 0.08256 3.015 1.2063 3.7297 2.5271 0.71315 1.3178 0.77777 3.2662 0.0753 4.4946-1.5203 2.6587-4.1401 9.9892-6.9833 11.128-4.1587 1.6654-8.2184 3.3487-14.065 4.0088l-6.1254 18.515c-0.72163 2.03 2.8173 14.133 3.7302 20.638 0.22217 1.5828 7.5273 3.7092 7.0434 6.9787-0.22019 1.4878-2.3895 2.1134-3.9877 2.1112l-10.061-0.0133s0.29837-5.9828 0.40691-9.0006c0.25039-6.9622-4.6672-21.141-4.328-23.546l-3.3368-0.73924z" style="fill:#fff;opacity:.99;stroke-linejoin:bevel;stroke-width:2.1963;stroke:#000"/>
  <path d="m46.927 60.227c-5.1839-0.10632-5.6304-10.599-6.8531-16.181 0-7.7369 10.799-10.429 11.814-13.098 0.51633-1.3586 2.3155-1.4178 4.0668-0.70038 1.5832 0.64854 1.4453 4.1335 0.89697 5.4864-1.2244 3.0211-8.7695 3.0109-8.0627 6.2548 1.4736 6.7643 4.0099 8.2004 4.0099 8.2004" style="fill:#fff;opacity:.99;stroke-linejoin:bevel;stroke-width:2.1963;stroke:#000"/>
  <path d="m154.37 57.926c24.297 1.1342 79.271-3.155 94.644-4.7237-15.373-1.5687-71.046-0.2878-93.135-4.1723s-69.893-8.5083-83.556-18.662c-4.9199-3.4286-11.718-1.159-14.491 2.5353-2.7732 3.6943-3.2321 8.2703 1.4241 12.927 10.449 10.449 70.817 10.962 95.114 12.096z" style="fill:none;opacity:.99;stroke-linejoin:bevel;stroke-width:1.0981;stroke:#ff0005"/>
  <path d="m246.68 49.555-6.9926-6.9926" style="fill:none;stroke-width:.26458px;stroke:#000"/>
  <path d="m251.4 49.555 2.1236-7.9255" style="fill:none;stroke-width:.26458px;stroke:#000"/>
  <path d="m253.67 52.956 8.02-2.149" style="fill:none;stroke-width:.26458px;stroke:#000"/>
  <path d="m252.34 55.791 6.0476 6.0476" style="fill:none;stroke-width:.26458px;stroke:#000"/>
  <path d="m248.57 56.358-4.4073 7.6337" style="fill:none;stroke-width:.26458px;stroke:#000"/>
 </g>
</svg>
