<?xml version="1.0" encoding="UTF-8" standalone="no"?>
<!-- Created with Inkscape (http://www.inkscape.org/) -->

<svg
   xmlns:dc="http://purl.org/dc/elements/1.1/"
   xmlns:cc="http://creativecommons.org/ns#"
   xmlns:rdf="http://www.w3.org/1999/02/22-rdf-syntax-ns#"
   xmlns:svg="http://www.w3.org/2000/svg"
   xmlns="http://www.w3.org/2000/svg"
   xmlns:sodipodi="http://sodipodi.sourceforge.net/DTD/sodipodi-0.dtd"
   xmlns:inkscape="http://www.inkscape.org/namespaces/inkscape"
   width="221.51257mm"
   height="123.33302mm"
   viewBox="0 0 221.51257 123.33302"
   version="1.1"
   id="svg8"
   inkscape:version="0.92.2 (5c3e80d, 2017-08-06)"
   sodipodi:docname="essence_feel.svg"
   inkscape:export-filename="C:\Users\rantenesse\odrive\Google Drive Gamedev\GUTS+ System\injury-chart.png"
   inkscape:export-xdpi="90"
   inkscape:export-ydpi="90">
  <defs
     id="defs2" />
  <sodipodi:namedview
     id="base"
     pagecolor="#ffffff"
     bordercolor="#666666"
     borderopacity="1.0"
     inkscape:pageopacity="0.0"
     inkscape:pageshadow="2"
     inkscape:zoom="0.7"
     inkscape:cx="355.66453"
     inkscape:cy="219.9679"
     inkscape:document-units="mm"
     inkscape:current-layer="layer1"
     showgrid="false"
     inkscape:snap-global="false"
     inkscape:window-width="1273"
     inkscape:window-height="591"
     inkscape:window-x="276"
     inkscape:window-y="77"
     inkscape:window-maximized="0"
     fit-margin-top="5"
     fit-margin-left="5"
     fit-margin-right="5"
     fit-margin-bottom="5" />
  <metadata
     id="metadata5">
    <rdf:RDF>
      <cc:Work
         rdf:about="">
        <dc:format>image/svg+xml</dc:format>
        <dc:type
           rdf:resource="http://purl.org/dc/dcmitype/StillImage" />
        <dc:title></dc:title>
      </cc:Work>
    </rdf:RDF>
  </metadata>
  <g
     inkscape:label="Layer 1"
     inkscape:groupmode="layer"
     id="layer1"
     transform="translate(-72.325328,-72.031078)">
    <path
       sodipodi:nodetypes="csaaaszscszsc"
       inkscape:connector-curvature="0"
       id="path5198"
       d="m 162.10178,129.69249 c 35.52385,3.84534 42.94296,17.84303 52.06444,30.87937 9.12149,13.03635 10.89677,23.36547 20.32332,20.95362 7.35385,-1.88153 6.17179,-14.36242 6.05568,-21.95226 -0.12783,-8.35632 -7.58407,-15.59856 -7.40341,-23.9539 0.15776,-7.29608 10.05141,-13.896 7.36292,-20.61812 -2.94886,-7.37313 -2.27832,-17.591792 3.2128,-24.946897 5.49112,-7.355105 -18.98869,-2.808876 -28.07103,5.881681 -9.08235,8.690556 -15.97444,15.651386 -49.54675,8.732446 -67.144644,-13.837877 -38.80788,-4.24408 -54.57431,-17.146603 -5.5355,-4.529997 -13.431629,-1.487475 -16.610367,3.253709 -3.178736,4.741183 -3.704666,10.613964 1.632367,16.589634 11.97742,13.41065 -5.493363,14.63664 65.55434,22.32732 z"
       style="display:inline;opacity:0.99999999;fill:#ffe6e6;fill-opacity:1;stroke:#ff0005;stroke-width:1.25861418;stroke-linejoin:bevel;stroke-miterlimit:4;stroke-dasharray:none;stroke-dashoffset:0;stroke-opacity:1" />
    <path
       style="opacity:0.98999999;fill:#ffffff;fill-opacity:1;stroke:#000000;stroke-width:2.30458403;stroke-linejoin:bevel;stroke-miterlimit:4;stroke-dasharray:none;stroke-dashoffset:0;stroke-opacity:1"
       d="m 251.82427,92.569088 c -6.81375,-1.24e-4 -12.33742,5.523542 -12.33729,12.337292 0.007,5.68447 3.89706,10.62839 9.42039,11.97228 0,0 -0.48875,2.18691 -1.34436,2.75262 -1.03578,0.68485 -5.93029,3.14175 -5.93029,3.14175 0,0 -6.72676,14.0859 -10.24525,21.58321 -1.37747,2.93518 -3.97059,8.32575 -2.91578,10.85644 0.48392,1.16101 1.94223,2.19043 3.31773,2.42556 1.37243,0.23461 3.11403,-0.24611 3.99646,-1.171 1.90981,-2.00169 0.11416,-6.59373 1.27658,-9.58978 1.94875,-5.02275 4.03507,-9.54201 6.03452,-15.24238 l -1.11644,21.77775 c 0.32332,1.75598 1.80662,14.52252 0.84865,21.34741 -0.23312,1.66079 -7.8983,3.89206 -7.39058,7.32262 0.23104,1.56114 2.50723,2.21746 4.18429,2.21525 l 10.55727,-0.0139 c 0,0 -0.96629,-6.27768 -1.08017,-9.44424 -0.26273,-7.30541 0.7423,-20.64213 0.94065,-23.18306 h 3.58615 c 0.19835,2.54096 1.20338,15.87766 0.94064,23.18306 -0.11388,3.16656 -1.08016,9.44424 -1.08016,9.44424 l 10.55727,0.0139 c 1.67706,0.003 3.95325,-0.65411 4.18429,-2.21525 0.50772,-3.43056 -7.15747,-5.66183 -7.39058,-7.32262 -0.95797,-6.82489 0.52532,-19.59143 0.80386,-21.83483 l -1.07885,-21.12651 c 2.47793,6.41036 3.48207,9.9065 5.44847,14.78092 1.20228,2.98027 -1.07469,7.43739 0.82037,9.52402 0.8756,0.96413 2.6018,1.46356 3.96088,1.21652 1.36211,-0.24759 2.80494,-1.32447 3.28238,-2.53721 1.04068,-2.64346 -1.43624,-7.71142 -2.42278,-10.80002 -2.10509,-6.59056 -9.59992,-21.18181 -9.56763,-21.77689 0,0 -4.83812,-1.84492 -5.99943,-2.57496 -1.03264,-0.64915 -1.17423,-2.78997 -1.17423,-2.78997 5.44212,-1.4066 9.24544,-6.31397 9.24982,-11.93493 1.2e-4,-6.81357 -5.52328,-12.337167 -12.33685,-12.337292 z"
       id="path4485-4"
       inkscape:connector-curvature="0"
       sodipodi:nodetypes="sccsccscccccssccsccsccccccccscscsccs" />
    <g
       aria-label="♪"
       style="font-style:normal;font-weight:normal;font-size:28.82986259px;line-height:1.25;font-family:sans-serif;letter-spacing:0px;word-spacing:0px;fill:#000000;fill-opacity:1;stroke:none;stroke-width:0.72074658"
       id="text5178"
       transform="translate(1.0690781,-2.1381562)">
      <path
         d="m 280.7162,82.257996 h 0.53493 c 1.61417,0 2.67934,0.05055 3.1955,0.151643 0.74139,0.144422 1.39362,0.422435 1.95671,0.834038 0.42231,0.303287 0.75547,0.732944 0.99947,1.288969 0.24401,0.548804 0.36601,1.191483 0.36601,1.928036 v 1.115662 h -1.39363 v -0.465762 c 0,-0.491035 -0.13608,-0.906249 -0.40824,-1.245642 -0.26277,-0.346613 -0.65693,-0.610184 -1.18247,-0.790711 -0.68509,-0.231076 -1.44525,-0.346614 -2.28049,-0.346614 h -0.39416 v 9.04444 c 0,0.87375 -0.15016,1.55615 -0.45047,2.04719 -0.30031,0.48381 -0.81647,0.87375 -1.54848,1.16981 -0.73201,0.28885 -1.52971,0.43327 -2.3931,0.43327 -1.02293,0 -2.44782,-0.0479 -3.12463,-0.66073 -0.66625,-0.62285 -0.99937,-1.34676 -0.99937,-2.44116 0,-1.14912 0.40186,-2.11219 1.20558,-2.889203 0.80372,-0.787972 1.85595,-1.181956 3.15671,-1.181956 0.82486,0 1.74491,0.251709 2.76013,0.755126 z"
         style="font-style:normal;font-variant:normal;font-weight:bold;font-stretch:normal;font-family:Georgia;-inkscape-font-specification:'Georgia Bold';stroke-width:0.63222826"
         id="path5180"
         inkscape:connector-curvature="0"
         sodipodi:nodetypes="cscccsccsccscsccscscscc" />
    </g>
    <path
       style="fill:none;stroke:#000000;stroke-width:1.32291663;stroke-linecap:butt;stroke-linejoin:miter;stroke-miterlimit:4;stroke-dasharray:none;stroke-opacity:1"
       d="m 265.31472,98.8798 6.94901,-4.810851"
       id="path5185"
       inkscape:connector-curvature="0" />
    <g
       aria-label="❢"
       style="font-style:normal;font-weight:normal;font-size:10.58333302px;line-height:1.25;font-family:sans-serif;letter-spacing:0px;word-spacing:0px;fill:#000000;fill-opacity:1;stroke:none;stroke-width:0.26458332"
       id="text5189" />
    <path
       id="path5194"
       style="fill:#000000;fill-opacity:1;stroke:none;stroke-width:1.78051686;stroke-miterlimit:4;stroke-dasharray:none;stroke-opacity:1"
       d="m 85.042326,92.063129 a 1.5731077,1.5731077 0 0 1 -1.573107,1.573108 1.5731077,1.5731077 0 0 1 -1.573108,-1.573108 1.5731077,1.5731077 0 0 1 1.573108,-1.573107 1.5731077,1.5731077 0 0 1 1.573107,1.573107 z m -1.569551,-2.159217 c -0.18547,-0.742055 -0.665493,-1.624745 -1.057182,-2.409498 -0.333259,-0.66769 -0.808827,-1.263081 -1.097628,-1.951169 -0.445013,-1.060281 -0.915639,-2.164077 -0.961094,-3.313062 -0.04721,-1.193484 0.121548,-2.536079 0.723335,-3.509487 0.537819,-0.869943 1.027605,-1.670473 2.336928,-1.689269 1.309324,-0.0188 1.788413,0.725578 2.336929,1.558317 0.654337,0.993391 0.844568,2.395517 0.834617,3.640439 -0.0092,1.137284 -0.368106,2.267446 -0.815524,3.313062 -0.303384,0.709008 -0.879999,1.27086 -1.243198,1.951169 -0.413066,0.773714 -0.871712,1.667443 -1.057183,2.409498 z"
       inkscape:connector-curvature="0" />
    <path
       style="opacity:0.99999999;fill:#ffffff;fill-opacity:1;stroke:#000000;stroke-width:10.0010004;stroke-linejoin:bevel;stroke-miterlimit:4;stroke-dasharray:none;stroke-dashoffset:0;stroke-opacity:1"
       d="m 394.83594,118.48047 c -29.56903,-5.4e-4 -53.5396,23.97003 -53.53906,53.53906 0.0301,24.6684 16.91173,46.1231 40.88085,51.95508 0,0 -2.121,9.49033 -5.83398,11.94531 -4.49493,2.972 -25.57453,13.52338 -25.57453,13.52338 0,0 -35.51495,23.62934 -54.54031,54.82882 -5.4741,13.03826 16.60108,63.34009 24.41484,69.2359 3.58474,2.70483 10.00759,3.34045 14.76055,1.70044 4.74234,-1.63632 9.3796,-6.08202 10.52069,-10.40814 2.46973,-9.36287 -19.19106,-39.19203 -17.18567,-52.9931 12.29054,-15.27971 19.17472,-15.18027 28.22357,-23.7955 l -4.84493,94.507 c 1.40312,7.62028 7.84004,63.0221 3.68282,92.63948 -1.01163,7.20715 -34.27554,16.89001 -32.07226,31.77735 1.00264,6.77472 10.88042,9.62288 18.1582,9.61328 l 45.81445,-0.0605 c 0,0 -4.19329,-27.24273 -4.6875,-40.98437 -1.14016,-31.70263 3.22129,-89.57878 4.08203,-100.60547 h 15.5625 c 0.86076,11.0268 5.22219,68.90288 4.08203,100.60547 -0.49421,13.74164 -4.6875,40.98437 -4.6875,40.98437 l 45.81446,0.0605 c 7.27778,0.01 17.15557,-2.83856 18.1582,-9.61328 2.20328,-14.88734 -31.06064,-24.5702 -32.07227,-31.77735 -4.1572,-29.61738 2.27971,-85.0192 3.48849,-94.75472 l -4.68184,-91.68082 c 18.32941,12.16112 18.58556,11.95664 26.17193,22.01313 8.03529,11.39846 -25.09787,30.84778 -23.01368,42.90114 0.96295,5.56924 6.12289,11.41625 11.67567,13.67476 5.56519,2.26354 13.35626,1.67756 17.92762,-1.65298 9.96435,-7.25977 31.49376,-49.31651 24.26248,-61.38659 -15.4303,-25.75549 -49.81836,-54.88589 -50.43069,-57.39853 0,0 -20.98535,-7.78559 -26.02498,-10.95367 -4.48126,-2.81707 -5.0957,-12.10742 -5.0957,-12.10742 23.61668,-6.10408 40.12162,-27.4002 40.14063,-51.79297 5.4e-4,-29.56827 -23.96885,-53.53852 -53.53711,-53.53906 z"
       id="path4485"
       inkscape:connector-curvature="0"
       sodipodi:nodetypes="sccsccscccccssccsccsccccccccscscsccs"
       transform="matrix(0.26458333,0,0,0.26458333,0.53323379,52.370835)" />
    <path
       style="display:inline;opacity:0.98999999;fill:none;fill-opacity:1;stroke:#ff0005;stroke-width:1.25861418;stroke-linejoin:bevel;stroke-miterlimit:4;stroke-dasharray:none;stroke-dashoffset:0;stroke-opacity:1"
       d="m 162.10178,129.69249 c 35.52385,3.84534 42.94296,17.84303 52.06444,30.87937 9.12149,13.03635 10.89677,23.36547 20.32332,20.95362 7.35385,-1.88153 6.17179,-14.36242 6.05568,-21.95226 -0.12783,-8.35632 -7.58407,-15.59856 -7.40341,-23.9539 0.15776,-7.29608 10.05141,-13.896 7.36292,-20.61812 -2.94886,-7.37313 -2.27832,-17.591792 3.2128,-24.946897 5.49112,-7.355105 -18.98869,-2.808876 -28.07103,5.881681 -9.08235,8.690556 -15.97444,15.651386 -49.54675,8.732446 -67.144644,-13.837877 -38.80788,-4.24408 -54.57431,-17.146603 -5.5355,-4.529997 -13.431629,-1.487475 -16.610367,3.253709 -3.178736,4.741183 -3.704666,10.613964 1.632367,16.589634 11.97742,13.41065 -5.493363,14.63664 65.55434,22.32732 z"
       id="path4706"
       inkscape:connector-curvature="0"
       sodipodi:nodetypes="csaaaszscszsc" />
  </g>
</svg>
