<?xml version="1.0" encoding="UTF-8" standalone="no"?>
<!-- Created with Inkscape (http://www.inkscape.org/) -->

<svg
   xmlns:dc="http://purl.org/dc/elements/1.1/"
   xmlns:cc="http://creativecommons.org/ns#"
   xmlns:rdf="http://www.w3.org/1999/02/22-rdf-syntax-ns#"
   xmlns:svg="http://www.w3.org/2000/svg"
   xmlns="http://www.w3.org/2000/svg"
   xmlns:sodipodi="http://sodipodi.sourceforge.net/DTD/sodipodi-0.dtd"
   xmlns:inkscape="http://www.inkscape.org/namespaces/inkscape"
   width="101.08146mm"
   height="117.96836mm"
   viewBox="0 0 101.08146 117.96836"
   version="1.1"
   id="svg8"
   inkscape:version="0.92.0 r15299"
   sodipodi:docname="essence.svg"
   inkscape:export-filename="C:\Users\rantenesse\odrive\Google Drive Gamedev\GUTS+ System\injury-chart.png"
   inkscape:export-xdpi="90"
   inkscape:export-ydpi="90">
  <defs
     id="defs2" />
  <sodipodi:namedview
     id="base"
     pagecolor="#ffffff"
     bordercolor="#666666"
     borderopacity="1.0"
     inkscape:pageopacity="0.0"
     inkscape:pageshadow="2"
     inkscape:zoom="0.49497475"
     inkscape:cx="173.13731"
     inkscape:cy="289.77444"
     inkscape:document-units="mm"
     inkscape:current-layer="layer1"
     showgrid="false"
     inkscape:snap-global="false"
     inkscape:window-width="1024"
     inkscape:window-height="810"
     inkscape:window-x="635"
     inkscape:window-y="192"
     inkscape:window-maximized="0"
     fit-margin-top="5"
     fit-margin-left="5"
     fit-margin-right="5"
     fit-margin-bottom="5" />
  <metadata
     id="metadata5">
    <rdf:RDF>
      <cc:Work
         rdf:about="">
        <dc:format>image/svg+xml</dc:format>
        <dc:type
           rdf:resource="http://purl.org/dc/dcmitype/StillImage" />
        <dc:title></dc:title>
      </cc:Work>
    </rdf:RDF>
  </metadata>
  <g
     inkscape:label="Layer 1"
     inkscape:groupmode="layer"
     id="layer1"
     transform="translate(-54.271923,-77.395743)">
    <path
       style="opacity:0.98999999;fill:#ffffff;fill-opacity:1;stroke:#000000;stroke-width:10.0010004;stroke-linejoin:bevel;stroke-miterlimit:4;stroke-dasharray:none;stroke-dashoffset:0;stroke-opacity:1"
       d="m 394.83594,118.48047 c -29.56903,-5.4e-4 -53.5396,23.97003 -53.53906,53.53906 0.0301,24.6684 16.91173,46.1231 40.88085,51.95508 0,0 -2.121,9.49033 -5.83398,11.94531 -4.49493,2.972 -16.74805,9.22266 -16.74805,9.22266 0,0 -59.8925,42.53732 -91.66406,59.33789 -12.43847,6.5774 -32.05578,4.38239 -38.74023,16.76367 -3.06663,5.68018 -2.54101,14.56681 0.86523,20.49609 3.3986,5.91606 10.79041,10.82876 17.23047,11.04688 13.93803,0.47221 21.88042,-17.40007 33.73242,-24.75 19.86932,-12.32178 54.13454,-29.43011 75.94336,-40.02539 l -4.84493,94.507 c 1.40312,7.62028 7.84004,63.0221 3.68282,92.63948 -1.01163,7.20715 -34.27554,16.89001 -32.07226,31.77735 1.00264,6.77472 10.88042,9.62288 18.1582,9.61328 l 45.81445,-0.0605 c 0,0 -4.19329,-27.24273 -4.6875,-40.98437 -1.14016,-31.70263 3.22129,-89.57878 4.08203,-100.60547 h 15.5625 c 0.86076,11.0268 5.22219,68.90288 4.08203,100.60547 -0.49421,13.74164 -4.6875,40.98437 -4.6875,40.98437 l 45.81446,0.0605 c 7.27778,0.01 17.15557,-2.83856 18.1582,-9.61328 2.20328,-14.88734 -31.06064,-24.5702 -32.07227,-31.77735 -4.1572,-29.61738 2.27971,-85.0192 3.48849,-94.75472 l -4.68184,-91.68082 c 21.86495,10.64589 55.09002,27.29328 74.47461,39.31445 11.85198,7.34993 19.79244,25.22221 33.73046,24.75 6.44005,-0.21812 13.8338,-5.13082 17.23243,-11.04688 3.40622,-5.92928 3.93183,-14.81591 0.86523,-20.49609 -6.68447,-12.38128 -26.30173,-10.18627 -38.74023,-16.76367 -31.32653,-16.56525 -88.92932,-56.18591 -89.87305,-58.59375 0,0 -12.08147,-6.79872 -17.1211,-9.9668 -4.48126,-2.81707 -5.0957,-12.10742 -5.0957,-12.10742 23.61668,-6.10408 40.12162,-27.4002 40.14063,-51.79297 5.4e-4,-29.56827 -23.96885,-53.53852 -53.53711,-53.53906 z"
       id="path4485"
       inkscape:connector-curvature="0"
       sodipodi:nodetypes="sccsccscccccssccsccsccccccccscscsccs"
       transform="matrix(0.26458333,0,0,0.26458333,0.53323379,52.370835)" />
    <path
       sodipodi:nodetypes="sccsccscccccssccsccsccccccccscscsccs"
       inkscape:connector-curvature="0"
       id="path4702"
       d="m 104.98589,85.729472 c -7.224804,-1.32e-4 -12.581695,5.859057 -12.581563,13.086688 0.0074,6.02977 5.33305,10.89601 11.189583,12.32154 0,0 -2.21913,4.69773 -3.12635,5.2978 -1.098272,0.72646 -4.092159,2.25432 -4.092159,2.25432 0,0 -16.383938,11.34245 -24.146898,15.44906 -3.039175,1.60773 -7.832404,1.26019 -9.465661,4.28658 -0.74929,1.38842 -0.620862,2.42667 0.211407,3.87598 0.830403,1.44608 2.06953,1.70196 3.643073,1.75528 3.405573,0.11542 4.968215,-4.25315 7.864094,-6.04971 4.854805,-3.01184 16.421997,-8.74874 21.750693,-11.33857 l -1.183795,25.60059 c 0.342834,1.86265 1.982574,19.28859 0.966813,26.52804 -0.247179,1.76167 -8.374774,3.5615 -7.836432,7.20045 0.244982,1.65597 2.091523,1.78519 3.869752,1.78284 l 9.871233,-0.20379 c 0,0 -1.02457,-6.65902 -1.14533,-10.01792 -0.27858,-7.74916 0.22012,-24.45699 0.43043,-27.15227 h 7.77124 c 0.21032,2.69531 1.27597,19.59211 0.99739,27.34126 -0.12075,3.3589 -1.14533,10.01792 -1.14533,10.01792 l 9.11529,0.0148 c 1.77823,0.002 3.81376,0.25111 4.05873,-1.40486 0.53835,-3.63895 -7.58925,-6.00575 -7.83643,-7.76742 -1.01576,-7.23945 0.435,-24.4764 0.73035,-26.85608 l -1.14395,-24.90978 c 5.34241,2.6022 18.03939,8.79338 22.77575,11.73175 2.89588,1.79656 3.51311,5.59817 6.91868,5.48275 1.57354,-0.0533 2.62415,-0.3092 3.45456,-1.75528 0.83227,-1.44931 0.7717,-2.48756 0.0224,-3.87598 -1.63326,-3.02639 -6.42648,-2.11189 -9.46566,-3.71962 -7.65423,-4.04909 -23.53971,-15.24557 -23.7703,-15.83412 0,0 -2.95195,-1.66183 -4.18331,-2.43622 -1.09494,-0.68858 -2.379,-5.5264 -2.379,-5.5264 5.77042,-1.49204 10.43711,-6.13055 10.44176,-12.09294 1.3e-4,-7.227445 -5.35647,-13.086556 -12.58108,-13.086688 z"
       style="opacity:0.98999999;fill:none;fill-opacity:1;stroke:#ff0005;stroke-width:1.32291663;stroke-linejoin:bevel;stroke-miterlimit:4;stroke-dasharray:none;stroke-dashoffset:0;stroke-opacity:1" />
  </g>
</svg>
