<svg width="231.55mm" height="114.52mm" version="1.1" viewBox="0 0 231.55 114.52" xmlns="http://www.w3.org/2000/svg">
 <g transform="translate(-31.607 -3.4528)">
  <path transform="translate(-54.272 -77.396)" d="m207.4 149.25c25.037-26.417 105.89 14.226 104.35-21.306-1.5335-35.532-76.88 8.2335-106.18-12.28z" style="fill:#ffe6e6;opacity:.99;stroke-linejoin:bevel;stroke-width:1.3229;stroke:#ff0005"/>
  <g transform="matrix(.60318 0 0 .75114 26.968 83.004)" style="stroke-width:1.4856">
   <path d="m158.12-89.708v16.571l29.934 5v-16.571zm31.257 5v16.571l29.934 5v-16.571zm31.257 5v16.571l29.934 5v-16.571zm31.257 5v16.571l29.934 5v-16.571zm-93.771 2.8935v16.571l15.501 2.75v-16.821zm16.824 2.5v16.821l29.934 5v-16.821zm31.257 5v16.821l29.935 5v-16.821zm31.258 5v16.821l29.934 5v-16.821zm31.257 5v16.821l13.045 2.25v-16.571zm-110.6 0.39348v16.571l29.934 5v-16.821zm31.257 4.75v16.821l29.934 5v-16.821zm31.257 5v16.821l29.934 5v-16.821zm31.257 5v16.821l29.934 5v-16.571zm-93.771 3.144v16.571l15.501 2.75v-16.821zm16.824 2.5v16.821l29.934 5v-16.821zm31.257 5v16.821l29.935 5v-16.821zm31.258 5v16.821l29.934 5v-16.821zm31.257 5v16.821l13.045 2.25v-16.571zm-110.6 0.39348v16.571l29.934 5v-16.821zm31.257 4.75v16.821l29.934 5v-16.821zm31.257 5v16.821l29.934 5v-16.821zm31.257 5v16.821l29.934 5v-16.571z" style="fill:#fff;stroke-width:1.9654;stroke:#000005"/>
   <g style="stroke-width:1.4856">
    <path d="m158.23-90.447 11.769-4.3317 30.902 4.9445-11.769 4.5665z" style="fill:#fff;stroke-linejoin:bevel;stroke-width:1.9654;stroke:#000"/>
    <path d="m189.79-85.155 11.769-4.3317 30.902 4.9445-11.769 4.5665z" style="fill:#fff;stroke-linejoin:bevel;stroke-width:1.9654;stroke:#000"/>
    <path d="m221.73-80.241 11.769-4.3317 30.902 4.9445-11.769 4.5665z" style="fill:#fff;stroke-linejoin:bevel;stroke-width:1.9654;stroke:#000"/>
    <path d="m252.16-75.138 11.769-4.3317 30.902 4.9445-11.769 4.5665z" style="fill:#fff;stroke-linejoin:bevel;stroke-width:1.9654;stroke:#000"/>
    <path d="m282.3-69.508 12.095-4.7247v16.442l-11.906 4.8467z" style="fill:#fff;stroke-width:1.9654;stroke:#000"/>
    <path d="m282.49-52.121 11.845-5.2247v17.442l-11.656 4.3467z" style="fill:#fff;stroke-width:1.9654;stroke:#000"/>
    <path d="m282.49-34.371 11.845-4.8467v17.064l-11.656 4.5967z" style="fill:#fff;stroke-width:1.9654;stroke:#000"/>
    <path d="m282.49-16.371 11.845-4.5967v17.064l-11.656 4.3467z" style="fill:#fff;stroke-width:1.9654;stroke:#000"/>
    <path d="m282.49 1.8791 11.845-4.8467v17.064l-11.656 4.3467z" style="fill:#fff;stroke-width:1.9654;stroke:#000"/>
   </g>
  </g>
  <path transform="translate(-54.272 -77.396)" d="m118.24 110.9s-4.5073 2.5089-5.5939 2.5591c-5.8654 0.27136-7.675 5.6155-10.822 9.9892 0 0-7.6303 20.907-6.7809 28.821 0.29269 2.7271 3.749 4.3027 9.9482 4.2547 6.1992-0.048 11.815-8.5127 13.301-11.575 10.629-21.902 68.856-10.03 91.834-6.1653v-15.847c-22.678 5.091-69.808 3.3304-87.567-4.3105-1.1881-0.51121-1.2922-5.8942-1.2922-5.8942 5.5874 2.075 12.068 0.93738 15.481-3.9518 4.1322-5.9296 3.0872-13.799-2.8402-17.93-5.9274-4.1307-13.672-2.3862-17.459 3.0544s-2.1995 12.478 1.7905 16.996z" style="fill:#ffe6e6"/>
  <path transform="matrix(.26458 0 0 .26458 -53.739 -25.025)" d="m378.31 475.16c1.0116 7.2072 34.276 16.89 32.072 31.777-1.0026 6.7747-10.88 9.6229-18.158 9.6133l-45.814-0.0605s4.1933-27.243 4.6875-40.984l-1.8241-110.71 28.96-109.83 27.56-32.942s13.572 2.2406 18.953 2.5161c4.4454 0.22751 11.785-6.1523 11.785-6.1523-15.831-18.918-13.644-43.962 0.9709-63.835 17.547-23.8 53.402-31.659 74.865-11.319 20.887 19.794 23.791 47.324 8.2758 72.621-12.769 20.784-40.414 26.968-63.045 17.865 0 0-5.0188 7.8422-3.0838 12.769 2.1762 5.5407 6.5285 7.4912 6.5285 7.4912 0.80607 2.4574 55.63 17.423 86.941 18.588 14.061 0.52323 39.885-12.28 45.859 0.4599 2.7405 5.8445 1.7132 14.687-2.0228 20.414-3.7277 5.7144-11.387 10.201-17.83 10.055-13.942-0.31668-19.44-6.6858-33.346-7.7503-20.339-1.557-53.094-1.8743-79.717 1.1314l-27.892 84.307c-3.2859 9.2436 12.828 64.356 16.986 93.973 1.0116 7.2072 34.276 16.89 32.072 31.777-1.0026 6.7747-10.88 9.6233-18.158 9.6133l-45.814-0.0605s1.3586-27.243 1.8529-40.984c1.1402-31.703-21.252-96.265-19.707-107.22l-15.194-3.3661z" style="fill:#fff;opacity:.99;stroke-linejoin:bevel;stroke-width:10.001;stroke:#000"/>
  <path transform="translate(-54.272 -77.396)" d="m99.24 128.99c4.3532 4.4801 17.891 3.2343 24.272 5.8192 2.6964 1.0923 9.7492-0.41301 13.126-1.0762 1.7182-0.33745 2.1537-2.4621 1.6571-4.6875-0.44887-2.0118-4.6155-2.5553-6.3334-2.1787-3.8362 0.8409-3.3911 0.55251-7.0999-0.94514-7.7339-3.1229-21.602-10.354-21.602-10.354" style="fill:#fff;opacity:.99;stroke-linejoin:bevel;stroke-width:2.6461;stroke:#000"/>
  <path d="m63.973 33.504s-4.5073 2.5089-5.5939 2.5591c-5.8654 0.27136-7.675 5.6155-10.822 9.9892 0 0-7.6303 20.907-6.7809 28.821 0.29269 2.7271 3.749 4.3027 9.9482 4.2547 6.1992-0.048 11.815-8.5127 13.301-11.575 10.629-21.902 68.856-10.03 91.834-6.1653v-15.847c-22.678 5.091-69.808 3.3304-87.567-4.3105-1.1881-0.51121-1.2922-5.8942-1.2922-5.8942 5.5874 2.075 12.068 0.93738 15.481-3.9518 4.1322-5.9296 3.0872-13.799-2.8402-17.93-5.9274-4.1307-13.672-2.3862-17.459 3.0544s-2.1995 12.478 1.7905 16.996z" style="fill:none;opacity:.99;stroke-linejoin:bevel;stroke-width:1.3229;stroke:#ff0005"/>
  <path d="m154.26 13.081c-21.239 0-38.554 17.314-38.554 38.552 0 21.239 17.315 38.555 38.554 38.555 21.239 0 38.552-17.316 38.552-38.555 0-21.239-17.314-38.552-38.552-38.552zm0 9.0969c16.322 0 29.455 13.133 29.455 29.455 0 6.5119-2.0919 12.515-5.6412 17.381l-41.195-41.195c4.8656-3.5492 10.869-5.6412 17.381-5.6412zm-23.814 12.074 41.196 41.196c-4.8654 3.5502-10.869 5.6435-17.381 5.6435-16.322 0-29.457-13.135-29.457-29.458 0-6.5125 2.0927-12.516 5.6429-17.381z" style="color-rendering:auto;color:#000000;dominant-baseline:auto;fill:#f00;font-feature-settings:normal;font-variant-alternates:normal;font-variant-caps:normal;font-variant-ligatures:normal;font-variant-numeric:normal;font-variant-position:normal;image-rendering:auto;isolation:auto;mix-blend-mode:normal;shape-padding:0;shape-rendering:auto;solid-color:#000000;stroke-linejoin:bevel;stroke-width:1.3229;stroke:#000;text-decoration-color:#000000;text-decoration-line:none;text-decoration-style:solid;text-indent:0;text-orientation:mixed;text-transform:none;white-space:normal"/>
 </g>
</svg>
