<?xml version="1.0" encoding="UTF-8" standalone="no"?>
<!-- Created with Inkscape (http://www.inkscape.org/) -->

<svg
   xmlns:dc="http://purl.org/dc/elements/1.1/"
   xmlns:cc="http://creativecommons.org/ns#"
   xmlns:rdf="http://www.w3.org/1999/02/22-rdf-syntax-ns#"
   xmlns:svg="http://www.w3.org/2000/svg"
   xmlns="http://www.w3.org/2000/svg"
   xmlns:sodipodi="http://sodipodi.sourceforge.net/DTD/sodipodi-0.dtd"
   xmlns:inkscape="http://www.inkscape.org/namespaces/inkscape"
   width="240.75316mm"
   height="117.96836mm"
   viewBox="0 0 240.75316 117.96836"
   version="1.1"
   id="svg8"
   inkscape:version="0.92.2 (5c3e80d, 2017-08-06)"
   sodipodi:docname="essence_grab.svg"
   inkscape:export-filename="C:\Users\rantenesse\odrive\Google Drive Gamedev\GUTS+ System\injury-chart.png"
   inkscape:export-xdpi="90"
   inkscape:export-ydpi="90">
  <defs
     id="defs2" />
  <sodipodi:namedview
     id="base"
     pagecolor="#ffffff"
     bordercolor="#666666"
     borderopacity="1.0"
     inkscape:pageopacity="0.0"
     inkscape:pageshadow="2"
     inkscape:zoom="0.7"
     inkscape:cx="477.4733"
     inkscape:cy="245.15789"
     inkscape:document-units="mm"
     inkscape:current-layer="layer1"
     showgrid="false"
     inkscape:snap-global="false"
     inkscape:window-width="1273"
     inkscape:window-height="591"
     inkscape:window-x="276"
     inkscape:window-y="77"
     inkscape:window-maximized="0"
     fit-margin-top="5"
     fit-margin-left="5"
     fit-margin-right="5"
     fit-margin-bottom="5" />
  <metadata
     id="metadata5">
    <rdf:RDF>
      <cc:Work
         rdf:about="">
        <dc:format>image/svg+xml</dc:format>
        <dc:type
           rdf:resource="http://purl.org/dc/dcmitype/StillImage" />
        <dc:title></dc:title>
      </cc:Work>
    </rdf:RDF>
  </metadata>
  <g
     inkscape:label="Layer 1"
     inkscape:groupmode="layer"
     id="layer1"
     transform="translate(-71.544314,-77.395743)">
    <path
       sodipodi:nodetypes="czssassccszsc"
       inkscape:connector-curvature="0"
       id="path4597"
       d="m 205.56904,122.88892 c 30.74571,3.50878 63.99576,-7.37226 75.27235,6.47585 11.27659,13.84811 1.22959,22.20839 1.56603,31.38118 0.16147,4.40235 6.21747,13.31996 6.28177,8.01018 0.0625,-5.15846 -0.18648,-16.54242 5.65033,-16.57402 5.91417,-0.032 6.46214,11.62984 5.90669,16.73071 -0.59401,5.45505 6.8149,-3.80205 6.40338,-8.32774 -0.82304,-9.05137 -11.98917,-28.57058 -20.99406,-34.62304 -18.00977,-12.10492 -49.29971,-8.17668 -78.35638,-14.49004 -29.05667,-6.31336 -80.00728,-11.04765 -95.77371,-23.950173 -5.5355,-4.529997 -13.431629,-1.487475 -16.610367,3.253709 -3.178736,4.741183 -3.704666,10.613964 1.632367,16.589634 11.97742,13.41065 78.27589,12.01497 109.0216,15.52375 z"
       style="display:inline;opacity:0.98999999;fill:#ffe6e6;fill-opacity:1;stroke:#ff0005;stroke-width:1.25861418;stroke-linejoin:bevel;stroke-miterlimit:4;stroke-dasharray:none;stroke-dashoffset:0;stroke-opacity:1" />
    <path
       style="opacity:0.98999999;fill:#ffffff;fill-opacity:1;stroke:#000000;stroke-width:10.0010004;stroke-linejoin:bevel;stroke-miterlimit:4;stroke-dasharray:none;stroke-dashoffset:0;stroke-opacity:1"
       d="m 394.83594,118.48047 c -29.56903,-5.4e-4 -53.5396,23.97003 -53.53906,53.53906 0.0301,24.6684 16.91173,46.1231 40.88085,51.95508 0,0 -2.121,9.49033 -5.83398,11.94531 -4.49493,2.972 -25.73519,13.63397 -25.73519,13.63397 0,0 -29.19154,61.12735 -44.4604,93.66276 -5.9777,12.73754 -17.23081,36.13049 -12.65335,47.11272 2.10001,5.03833 8.42852,9.50562 14.39766,10.52599 5.9558,1.01812 13.51369,-1.06803 17.34305,-5.08169 8.28786,-8.68656 0.49543,-28.61422 5.53988,-41.61594 8.4568,-21.79676 17.51065,-41.40859 26.18749,-66.14601 l -4.84493,94.507 c 1.40312,7.62028 7.84004,63.0221 3.68282,92.63948 -1.01163,7.20715 -34.27554,16.89001 -32.07226,31.77735 1.00264,6.77472 10.88042,9.62288 18.1582,9.61328 l 45.81445,-0.0605 c 0,0 -4.19329,-27.24273 -4.6875,-40.98437 -1.14016,-31.70263 3.22129,-89.57878 4.08203,-100.60547 h 15.5625 c 0.86076,11.0268 5.22219,68.90288 4.08203,100.60547 -0.49421,13.74164 -4.6875,40.98437 -4.6875,40.98437 l 45.81446,0.0605 c 7.27778,0.01 17.15557,-2.83856 18.1582,-9.61328 2.20328,-14.88734 -31.06064,-24.5702 -32.07227,-31.77735 -4.1572,-29.61738 2.27971,-85.0192 3.48849,-94.75472 l -4.68184,-91.68082 c 10.75327,27.81848 15.11087,42.99035 23.64428,64.14341 5.21741,12.93327 -4.66376,32.27544 3.56008,41.3306 3.79977,4.18395 11.29077,6.35129 17.18865,5.27925 5.91105,-1.07445 12.17241,-5.74773 14.2443,-11.01054 4.51613,-11.47158 -6.23275,-33.46456 -10.51392,-46.86791 -9.13528,-28.60046 -41.65992,-91.92085 -41.51983,-94.50323 0,0 -20.99558,-8.00624 -26.03521,-11.17432 -4.48126,-2.81707 -5.0957,-12.10742 -5.0957,-12.10742 23.61668,-6.10408 40.12162,-27.4002 40.14063,-51.79297 5.4e-4,-29.56827 -23.96885,-53.53852 -53.53711,-53.53906 z"
       id="path4485"
       inkscape:connector-curvature="0"
       sodipodi:nodetypes="sccsccscccccssccsccsccccccccscscsccs"
       transform="matrix(0.26458333,0,0,0.26458333,0.53323379,52.370835)" />
    <path
       style="display:inline;opacity:0.98999999;fill:none;fill-opacity:1;stroke:#ff0005;stroke-width:1.25861418;stroke-linejoin:bevel;stroke-miterlimit:4;stroke-dasharray:none;stroke-dashoffset:0;stroke-opacity:1"
       d="m 205.56904,122.88892 c 30.74571,3.50878 63.99576,-7.37226 75.27235,6.47585 11.27659,13.84811 1.22959,22.20839 1.56603,31.38118 0.16147,4.40235 6.21747,13.31996 6.28177,8.01018 0.0625,-5.15846 -0.18648,-16.54242 5.65033,-16.57402 5.91417,-0.032 6.46214,11.62984 5.90669,16.73071 -0.59401,5.45505 6.8149,-3.80205 6.40338,-8.32774 -0.82304,-9.05137 -11.98917,-28.57058 -20.99406,-34.62304 -18.00977,-12.10492 -49.29971,-8.17668 -78.35638,-14.49004 -29.05667,-6.31336 -80.00728,-11.04765 -95.77371,-23.950173 -5.5355,-4.529997 -13.431629,-1.487475 -16.610367,3.253709 -3.178736,4.741183 -3.704666,10.613964 1.632367,16.589634 11.97742,13.41065 78.27589,12.01497 109.0216,15.52375 z"
       id="path4706"
       inkscape:connector-curvature="0"
       sodipodi:nodetypes="czssassccszsc" />
    <g
       id="g4593"
       transform="matrix(0.98555958,0,0,0.98555958,-1.1948706,-4.4272706)">
      <path
         inkscape:connector-curvature="0"
         id="rect4578"
         d="m 212.07697,145.28226 h 38.55357 v 38.55357 h -38.55357 z"
         style="fill:#ffffff;fill-opacity:1;stroke:#000000;stroke-width:1.32291663;stroke-miterlimit:4;stroke-dasharray:none;stroke-opacity:1" />
      <rect
         style="fill:#ffffff;fill-opacity:1;stroke:#000000;stroke-width:1.32291663;stroke-miterlimit:4;stroke-dasharray:none;stroke-opacity:1"
         y="-52.222969"
         x="254.17198"
         height="9.4494104"
         width="51.026791"
         id="rect4552"
         transform="rotate(45)" />
      <rect
         style="fill:#ffffff;fill-opacity:1;stroke:#000000;stroke-width:1.32291663;stroke-miterlimit:4;stroke-dasharray:none;stroke-opacity:1"
         y="139.04565"
         x="205.84036"
         height="9.4494104"
         width="51.026791"
         id="rect3739" />
      <rect
         id="rect4548"
         width="51.026791"
         height="9.4494104"
         x="205.84036"
         y="180.62303"
         style="fill:#ffffff;fill-opacity:1;stroke:#000000;stroke-width:1.32291663;stroke-miterlimit:4;stroke-dasharray:none;stroke-opacity:1" />
      <rect
         transform="rotate(90)"
         id="rect4546"
         width="51.026791"
         height="9.4494104"
         x="139.04565"
         y="-256.86716"
         style="fill:#ffffff;fill-opacity:1;stroke:#000000;stroke-width:1.32291663;stroke-miterlimit:4;stroke-dasharray:none;stroke-opacity:1" />
      <rect
         style="fill:#ffffff;fill-opacity:1;stroke:#000000;stroke-width:1.32291663;stroke-miterlimit:4;stroke-dasharray:none;stroke-opacity:1"
         y="-215.28978"
         x="139.04565"
         height="9.4494104"
         width="51.026791"
         id="rect4550"
         transform="rotate(90)" />
    </g>
    <circle
       style="fill:#ffffff;fill-opacity:1;stroke:#000000;stroke-width:1.32291663;stroke-miterlimit:4;stroke-dasharray:none;stroke-opacity:1"
       id="path4595"
       cx="294.47577"
       cy="170.41768"
       r="4.5357141" />
  </g>
</svg>
