<svg width="22pt" height="22pt" viewBox="0 0 100 100" xmlns="http://www.w3.org/2000/svg" xmlns:svg="http://www.w3.org/2000/svg">
 <g>
  <title>Layer 1</title>
  <g id="layer1">
   <path fill="#a0a0ff" stroke="#a0a0ff" stroke-width="1.2218" stroke-miterlimit="4" id="path4142" d="m48.98237,97.8691l-41.98313,-24.239l0,-48.47796l41.98313,-24.23897l41.98313,24.23897l0,48.47796l-41.98313,24.239z"/>
   <g id="g4657" transform="matrix(2.9000748,0,0,2.9000748,17.560041,968.58207) ">
    <path fill="#000000" stroke="null" id="editor_pencil_pen_edit_write_glyph" d="m2.40166,-313.82635l4.72483,4.70973l10.79962,-10.7651l-4.72483,-4.70973l-10.79962,10.7651zm13.51982,-13.47661l-1.99364,1.98727l4.72409,4.70899l1.99364,-1.98727c0.6766,-0.67444 -0.00001,-1.34889 -0.00001,-1.34889l-3.37088,-3.3601c0,0 -0.6766,-0.67444 -1.3532,0zm-14.18411,14.11637l-0.99229,5.72125l5.7273,-1.00138l-4.735,-4.71987l-0.00001,0z"/>
    <rect transform="matrix(0.69825835,0.71584585,-0.71584585,0.69825835,11.119094,-4.6050809) " id="svg_1" height="2.10315" width="26.11743" y="-219.65699" x="-237.30928" stroke-linecap="null" stroke-linejoin="null" stroke-width="null"/>
   </g>
  </g>
 </g>
</svg>